<?xml version="1.0" standalone="no"?>
<!DOCTYPE svg PUBLIC "-//W3C//DTD SVG 20010904//EN" "http://www.w3.org/TR/2001/REC-SVG-20010904/DTD/svg10.dtd">
<!-- Created using Krita: http://krita.org -->
<svg xmlns="http://www.w3.org/2000/svg" 
    xmlns:xlink="http://www.w3.org/1999/xlink"
    xmlns:krita="http://krita.org/namespaces/svg/krita"
    xmlns:sodipodi="http://sodipodi.sourceforge.net/DTD/sodipodi-0.dtd"
    width="360pt"
    height="360pt"
    viewBox="0 0 360 360">
<defs>
  <linearGradient id="gradient0" gradientUnits="objectBoundingBox" x1="0.501286029587553" y1="0.961007857600919" x2="0.452707075116604" y2="0.0685352264443564" spreadMethod="pad">
   <stop stop-color="#f2bc9d" offset="0" stop-opacity="1"/>
   <stop stop-color="#ca7e5a" offset="1" stop-opacity="1"/>
  </linearGradient>
  <linearGradient id="gradient1" gradientUnits="objectBoundingBox" x1="0.498229594091141" y1="0.84421635692457" x2="0.498229539228707" y2="-0.208060746346697" spreadMethod="pad">
   <stop stop-color="#f2bc9d" offset="0" stop-opacity="1"/>
   <stop stop-color="#d8845d" offset="1" stop-opacity="1"/>
  </linearGradient>
 </defs>
<circle id="shape0" transform="matrix(1.46733442583018 0 0 1.46733442583018 28.3950075587136 54.6074946215611)" r="103.319999703212" cx="103.319999703212" cy="103.319999703212" fill="#2c3e50" fill-rule="evenodd" stroke="#000000" stroke-opacity="0" stroke-width="0" stroke-linecap="square" stroke-linejoin="bevel"/><path id="shape01" transform="matrix(1.46733441251582 0 0 1.46733441251582 91.4687308340053 100.977493792389)" fill="#5b382b" fill-rule="evenodd" stroke="#000000" stroke-opacity="0" stroke-width="0" stroke-linecap="square" stroke-linejoin="bevel" d="M9.14133 0C4.45745 7.22955 1.50882 13.9491 0.295428 20.1588C-0.917963 26.3684 1.60641 31.7828 7.86854 36.4019C6.72497 33.5511 6.36435 31.0217 6.78667 28.8138C7.06436 27.362 8.14623 25.1558 10.0323 22.1953C8.55902 27.862 8.94086 32.9369 11.1778 37.4201C14.1657 43.4083 18.3987 46.925 19.3237 49.5116C19.8287 50.9238 19.5741 52.9603 18.56 55.621C20.9868 55.3665 22.599 53.2451 23.3966 49.2571C36.1245 49.308 59.5863 50.1141 93.782 51.6754L87.6726 57.7848C92.9912 57.0178 96.258 56.1268 97.4731 55.1119C99.205 53.6653 100.998 52.3348 103.137 46.966C103.809 45.2796 104.169 41.5036 104.219 35.6382C105.218 39.8785 106.078 42.3853 106.798 43.1584C108.309 44.7793 110.292 45.7253 112.747 45.9965C110.873 42.7012 109.94 40.2405 109.946 38.6143C109.965 34.0918 111.858 34.0436 114.338 27.6046C115.99 23.312 115.036 17.5894 111.474 10.4369C111.474 10.4369 77.363 6.95793 9.14133 0Z"/><path id="shape02" transform="matrix(-1.4673344400862 0 0 1.46733438598031 296.741148993142 211.146683580511)" fill="#ffffff" stroke="#000000" stroke-opacity="0" stroke-width="0" stroke-linecap="square" stroke-linejoin="bevel" d="M79.56 100.317C50.6279 100.563 20.103 87.4083 0 62.5173C2.358 57.0993 11.9389 44.5769 17.4753 42.268C25.8782 38.7896 42.0607 39.5901 57.0711 23.8827C59.9217 17.696 71.7982 11.7647 67.6276 1.2714L79.2715 0L89.5196 1.90779C94.6372 10.4474 98.6213 17.8106 101.472 23.9973C116.482 39.7047 132.665 38.9042 141.068 42.3826C146.604 44.6915 157.392 56.4693 159.75 61.8873C140.571 85.8269 114.437 99.1078 79.56 100.317Z"/><path id="shape1" transform="matrix(1.46733441251582 0 0 1.46733441251582 129.729949924147 200.966143575617)" fill="url(#gradient0)" fill-rule="evenodd" stroke="#000000" stroke-opacity="0" stroke-width="0" stroke-linecap="square" stroke-linejoin="bevel" d="M33.3743 4.78794L8.51944 1.05542C11.4253 16.7362 11.4049 27.5002 9.54009 31.438C8.3524 33.9459 5.99467 35.7986 0 40.1079C7.82886 47.6768 19.7367 53.7931 33.3743 54.2359C46.3804 54.6582 63.1239 44.9479 68.3431 39.902C62.4121 36.6109 60.7298 34.2878 58.9881 31.5652C56.9323 26.8637 56.8899 14.3904 59.3699 0L33.7827 4.6734"/><path id="shape2" transform="matrix(1.46733441251582 0 0 1.46733441251582 109.901875257286 44.8218012450286)" fill="url(#gradient1)" fill-rule="evenodd" stroke="#000000" stroke-opacity="0" stroke-width="0" stroke-linecap="square" stroke-linejoin="bevel" d="M47.7724 123.787C40.8442 123.865 24.327 117.319 19.9848 109.083C4.98673 81.7564 4.35543 64.2747 0.252425 36.909C-3.39996 12.5488 33.5666 0.600816 47.5043 0.0162787C60.3037 -0.520519 97.2881 12.239 95.8432 35.2608C94.5718 55.5188 90.5676 80.0458 75.1739 109.15C71.8807 117.359 54.7006 123.709 47.7724 123.787Z"/><path id="shape3" transform="matrix(1.46733441251582 0 0 1.46733441251582 163.992041240234 161.051195728448)" fill="#b07962" fill-rule="evenodd" stroke="#000000" stroke-opacity="0" stroke-width="0" stroke-linecap="square" stroke-linejoin="bevel" d="M5.35669 0.177785L2.41831 5.50125C5.55094 7.41493 8.33815 8.3689 10.78 8.36316C13.2218 8.35741 16.0849 7.38395 19.3695 5.44278L16.4757 0C20.2648 3.42673 21.9944 5.46599 21.6645 6.11778C19.3813 10.6292 13.0864 13.3397 10.7117 13.2278C9.00852 13.1475 1.91812 9.44899 0 5.81945C0.753162 4.29648 2.53873 2.41593 5.35669 0.177785Z"/><path id="shape4" transform="matrix(1.46733441251582 0 -0.0145388492933006 1.46733441251582 188.643492616373 100.582013660561)" fill="#704429" fill-rule="evenodd" stroke="#000000" stroke-opacity="0" stroke-width="0" stroke-linecap="square" stroke-linejoin="bevel" d="M0.505907 13.2479C3.93703 13.9312 13.1185 6.08123 20.9268 5.8938C24.8701 5.79915 31.8675 8.13153 41.919 12.8909C32.2542 4.8804 24.5524 0.591762 18.8136 0.0250386C11.9722 -0.65057 -2.92522 12.5646 0.505907 13.2479Z"/><path id="shape5" transform="matrix(1.46636220612041 0.0534056047138008 -0.0534056047138008 1.46636220612041 142.774747937783 123.390166472299)" sodipodi:type="arc" sodipodi:rx="4.50253855879156" sodipodi:ry="3.67326823147486" sodipodi:cx="4.50253939707531" sodipodi:cy="3.67326975883536" sodipodi:start="6.28318530717959" sodipodi:end="6.27485892810037" sodipodi:open="true" d="M9.00492 3.64269C8.98425 1.61705 6.9574 -0.0125769 4.47442 7.3151e-05C1.99145 0.0127232 -0.0102974 1.66288 3.98576e-05 3.68856C0.0103771 5.71425 2.02889 7.35075 4.51191 7.34653C6.99493 7.34231 9.00508 5.69897 9.00508 3.67327" fill="#276749" fill-rule="evenodd"/><path id="shape011" transform="matrix(-1.46600680184603 0.0655156961343993 0.0854334736746632 1.46484519662538 168.979149752515 98.6391905908465)" fill="#704429" fill-rule="evenodd" stroke="#000000" stroke-opacity="0" stroke-width="0" stroke-linecap="square" stroke-linejoin="bevel" d="M0.221591 14.2827C2.15592 16.189 9.84886 6.00257 20.6333 6.33913C24.5759 6.28382 32.6005 10.5067 42.6464 15.6007C33.9984 5.47802 24.2804 0.397596 18.5211 0C9.40299 1.50698 -1.71274 12.3763 0.221591 14.2827Z"/><path id="shape6" transform="matrix(1.46677438528586 -0.0405361668444768 0.0405361668444768 1.46677438528586 106.322135899873 121.622535631264)" fill="#e8a684" fill-rule="evenodd" d="M10.6915 31.7547C8.59398 31.8315 7.1066 31.5953 6.22932 31.0459C3.07245 29.0691 0.440136 13.3185 0.0398903 8.93102C-0.17758 6.54709 0.494139 3.57008 2.05505 0L5.41365 3.68582C5.41365 3.68582 7.17292 13.0421 10.6915 31.7547Z"/><path id="shape021" transform="matrix(-1.45175284101286 0.213269485690635 0.213269484048798 1.45175287227968 163.34040314964 118.471127931326)" fill="#4e3930" fill-rule="evenodd" stroke="#000000" stroke-opacity="0" stroke-width="0" stroke-linecap="square" stroke-linejoin="bevel" d="M0 9.59218C3.91716 3.83167 4.34849 0.893848 10.1417 0.0342928C14.4722 -0.283042 19.4945 1.60201 25.2087 5.68944C17.4165 3.16574 12.1907 2.23327 9.53105 2.89201C5.96725 3.68114 3.30926 6.90235 0 9.59218Z"/><path id="shape03" transform="matrix(-1.46559972781764 0.0713271220455788 0.0713271121485927 1.46559976113025 215.290315851247 123.431743877805)" sodipodi:type="arc" sodipodi:rx="4.50253855879156" sodipodi:ry="3.67326823147486" sodipodi:cx="4.50253939707531" sodipodi:cy="3.67326975883536" sodipodi:start="6.28318530717959" sodipodi:end="6.27485892810037" sodipodi:open="true" d="M9.00492 3.64269C8.98425 1.61705 6.9574 -0.0125769 4.47442 7.3151e-05C1.99145 0.0127232 -0.0102974 1.66288 3.98576e-05 3.68856C0.0103771 5.71425 2.02889 7.35075 4.51191 7.34653C6.99493 7.34231 9.00508 5.69897 9.00508 3.67327" fill="#276749" fill-rule="evenodd"/><path id="shape04" transform="matrix(1.45175278689923 0.213269482792061 -0.213269476099244 1.45175285254871 195.642529377487 118.620891058514)" fill="#4e3930" fill-rule="evenodd" stroke="#000000" stroke-opacity="0" stroke-width="0" stroke-linecap="square" stroke-linejoin="bevel" d="M0 9.61174C2.96131 3.53682 4.23111 1.20833 9.1641 0.0658105C13.5024 -0.404293 17.5729 1.65542 22.8748 5.88365C16.829 3.75964 12.9921 2.13511 9.53105 2.91157C5.96725 3.7007 3.30926 6.92191 0 9.61174Z"/><path id="shape05" transform="matrix(-1.46733448123018 0 0 1.46733436181581 252.824998735375 118.365046191292)" fill="#e8a684" fill-rule="evenodd" d="M10.6915 31.7547C8.59398 31.8315 7.1066 31.5953 6.22932 31.0459C3.07245 29.0691 0.440136 13.3185 0.0398903 8.93102C-0.17758 6.54709 0.494139 3.57008 2.05505 0L5.41365 3.68582C5.41365 3.68582 7.17292 13.0421 10.6915 31.7547Z"/><path id="shape7" transform="matrix(1.46733441251582 0 0 1.46733441251582 63.7520672284616 1.64976119761852)" fill="#7c4629" fill-rule="evenodd" stroke="#000000" stroke-opacity="0" stroke-width="0" stroke-linecap="square" stroke-linejoin="bevel" d="M60.9958 15.6205C65.9813 7.58792 77.5211 6.49928 83.6473 6.06524C89.7734 5.6312 93.1604 7.44614 104.556 8.65754C107.091 8.927 111.618 10.5087 115.777 6.08733C116.873 4.92212 117.171 2.89301 116.67 0C121.596 2.44592 123.764 5.24158 123.173 8.38699C122.253 13.2802 116.858 15.072 117.18 16.6387C122.584 17.5074 140.783 23.9908 143.995 31.8337C145.824 36.2992 145.872 40.1732 144.14 43.4555C142.176 38.9602 139.818 37.0362 137.065 37.6837C132.927 38.657 131.781 50.5363 138.675 56.2381C141.785 58.8104 144.201 58.7312 145.561 58.132C146.303 57.8049 148.216 54.8787 148.238 55.0207C150.158 67.3684 138.001 71.7133 133.822 71.6146C136.53 76.7258 135.514 81.4527 131.083 91.0528C126.168 98.4874 120.388 103.132 113.741 104.986C117.388 101.461 119.535 97.4261 120.181 92.879C120.362 87.7096 120.525 86.7937 117.071 78.9316C112.615 83.1061 115.805 86.0172 116.097 88.0573C110.397 86.5343 106.504 77.6028 106.589 71.7011C106.645 67.7667 108.131 62.9955 111.048 57.3878C106.198 52.0183 102.1 52.2094 97.4939 53.4611C93.104 54.6129 79.6663 65.6119 84.3833 72.1961C77.0593 67.2824 83.3802 59.3652 84.4799 57.8952C82.126 60.6902 79.1046 63.7218 75.7562 65.1337C70.4487 67.3717 64.176 67.3052 59.307 64.8631C55.6491 63.0285 52.4166 58.5134 50.9314 51.5132C43.4235 56.7729 38.959 63.0576 38.698 69.9812C39.1677 72.266 39.751 76.7837 43.8602 79.7628C44.2901 80.0746 45.5712 80.4288 47.7032 80.8255C45.1421 83.0324 42.7755 83.3925 40.6033 81.906C38.4312 80.4194 36.6059 78.9696 35.1276 77.5565C38.6953 87.1653 40.4003 93.1108 40.2427 95.3931C38.5977 103.254 33.6515 106.707 25.4039 105.751C35.5517 100.56 34.5917 92.7 22.5239 82.1711C18.6096 77.8592 16.2872 71.7062 15.5567 63.712C12.7402 64.9257 9.67986 65.3315 6.37569 64.9294C2.98783 64.5171 0.8626 63.3899 0 61.5476C2.21655 61.8075 4.72432 61.0409 7.52331 59.2479C10.322 57.4551 10.9545 49.1183 15.8639 40.0511C19.095 35.1799 29.6891 25.6707 41.2439 26.0111C40.1059 24.2508 32.5198 20.9934 25.2239 28.1711C32.5471 9.82518 58.0602 15.2411 60.9958 15.6205Z"/><ellipse id="shape8" transform="matrix(1.46733441251582 0 0 1.46733441251582 145.851135929333 125.966234731464)" rx="2.29500384000958" ry="1.98000300215317" cx="2.29500384000958" cy="1.98000300215317" fill="#223440" fill-rule="evenodd"/><ellipse id="shape9" transform="matrix(1.46733441251582 0 0 1.46733441251582 144.530534944635 125.702115355965)" rx="1.08" ry="0.899999999999999" cx="1.08" cy="0.899999999999999" fill="#e1d5d1" fill-rule="evenodd"/><ellipse id="shape06" transform="matrix(1.46733445677801 0 0 1.46733437350929 205.58780157245 126.19848193956)" rx="2.29500384000958" ry="1.98000300215317" cx="2.29500384000958" cy="1.98000300215317" fill="#223440" fill-rule="evenodd"/><ellipse id="shape11" transform="matrix(1.46733445677801 0 0 1.46733437350929 204.948044635296 126.296394352595)" rx="0.821250018556116" ry="0.585000046415801" cx="0.821250018556116" cy="0.585000046415801" fill="#e1d5d1" fill-rule="evenodd"/><path id="shape011" transform="matrix(1.46733441251582 0 0 1.46733441251582 112.866156952251 258.348508867217)" fill="#ffffff" fill-rule="evenodd" stroke="#000000" stroke-opacity="0" stroke-width="0" stroke-linecap="square" stroke-linejoin="bevel" d="M13.0779 2.26803L10.8824 0C7.96344 2.46497 4.33598 4.51205 0 6.14122C11.0097 4.48659 5.69575 4.44711 13.0779 2.26803Z"/><path id="shape031" transform="matrix(-1.46733437253034 0 0 1.46733440298329 247.251831552308 257.693142887397)" fill="#ffffff" fill-rule="evenodd" stroke="#000000" stroke-opacity="0" stroke-width="0" stroke-linecap="square" stroke-linejoin="bevel" d="M13.0779 2.26803L10.8824 0C7.96344 2.46497 4.33598 4.51205 0 6.14122C11.0097 4.48659 5.69575 4.44711 13.0779 2.26803Z"/><g id="group1" transform="matrix(1.36454133792572 0 0 1.3058139929364 156.789151841883 190.286076826516)" fill="none">
  <path id="shape111" fill="#5e393e" fill-rule="evenodd" d="M0 0.27C5.8683 1.36204 11.4783 1.90197 16.83 1.88977C22.6098 1.78433 28.3398 1.1544 34.02 0C28.3398 7.6772 22.6098 11.6296 16.83 11.8573C11.4031 11.6131 5.79313 7.75062 0 0.27Z"/>
  <path id="shape21" transform="translate(5.33250358716359, 1.84500323314967)" fill="#e1d5d1" fill-rule="evenodd" stroke="#000000" stroke-opacity="0" stroke-width="0" stroke-linecap="square" stroke-linejoin="bevel" d="M0 0.45C5.84636 1.34095 13.5248 1.67389 24.1875 0C23.7675 0.407293 23.21 0.872147 22.23 1.8225C14.9689 3.23551 7.74606 3.41905 1.8675 2.25C0.891687 1.34631 0.280919 1.31411 0 0.45Z"/>
  <path id="shape31" transform="translate(9.36000554063094, 7.06775721356399)" fill="#a74b5b" fill-rule="evenodd" d="M0 0.829748C3.99518 0.0174758 9.33792 -0.497451 15.6375 0.739748C11.6632 2.90243 9.65058 3.55018 7.46999 3.63609C5.41084 3.57245 3.45319 3.05713 0 0.829748Z"/>
 </g>
</svg>
